<?xml version="1.0" encoding="utf-8"?>
<!-- Generator: Adobe Illustrator 16.0.0, SVG Export Plug-In . SVG Version: 6.00 Build 0)  -->
<!DOCTYPE svg PUBLIC "-//W3C//DTD SVG 1.1//EN" "http://www.w3.org/Graphics/SVG/1.1/DTD/svg11.dtd">
<svg version="1.1" id="armchair" xmlns="http://www.w3.org/2000/svg" xmlns:xlink="http://www.w3.org/1999/xlink" x="0px" y="0px"
	 width="736.35px" height="805.836px" viewBox="-27.002 -161.492 736.35 805.836"
	 enable-background="new -27.002 -161.492 736.35 805.836" xml:space="preserve">
<polyline fill="#bac5f4" points="376.305,438.924 401.107,633.605 390.773,632.012 350.84,438.08 376.305,438.924 "/>
<polygon fill="#bac5f4" points="158.959,616.4 147.93,616.172 145.043,429.77 183.815,431.412 "/>
<polygon fill="#bac5f4" points="649.814,344.289 709.348,482.842 698.719,491.588 614.975,359.52 "/>
<polygon fill="#bac5f4" points="411.535,627.627 401.107,633.605 376.305,438.924 396.334,440.162 409.537,436.623 "/>
<linearGradient id="SVGID_1_" gradientUnits="userSpaceOnUse" x1="-105.4639" y1="99.9189" x2="221.8638" y2="391.5969" gradientTransform="matrix(-1.1004 0.2949 0.2949 1.1004 375.5204 -196.8167)">
	<stop  offset="0" style="stop-color:#e5a3ec"/>
	<stop  offset="1" style="stop-color:#2d298a"/>
</linearGradient>
<polygon fill="url(#SVGID_1_)" points="400.855,319.708 633.689,287.632 637.779,300.69 435.443,368.235 407.529,364.863
	226.547,395.902 97.488,-69.471 308.045,-124.829 "/>
<linearGradient id="SVGID_2_" gradientUnits="userSpaceOnUse" x1="216.9321" y1="-48.8594" x2="-8.7457" y2="375.0967" gradientTransform="matrix(-1.1004 0.2949 0.2949 1.1004 375.5204 -196.8167)">
	<stop  offset="0" style="stop-color:#e5a3ec"/>
	<stop  offset="1" style="stop-color:#7d78f5"/>
</linearGradient>
<polygon fill="url(#SVGID_2_)" points="444.182,214.221 574.598,186.825 634.688,182.635 647.604,286.736 396.17,340.073
	308.045,-124.829 380.549,-143.429 "/>
<linearGradient id="SVGID_3_" gradientUnits="userSpaceOnUse" x1="668.2666" y1="469.4004" x2="1173.3767" y2="678.7304" gradientTransform="matrix(-1.1004 0.2949 0.2949 1.1004 1151.2686 -731.2151)">
	<stop  offset="0" style="stop-color:#e5a3ec"/>
	<stop  offset="1" style="stop-color:#9778f2"/>
</linearGradient>
<path fill="url(#SVGID_3_)" d="M428.129,365.594c-11.689-0.052-45.982,11.494-46.539,6.338
	c-1.635-16.665,2.932-101.741-10.852-107.84c-20.434-8.913-150.522,28.067-183.282,33.897
	c-14.299,2.533-20.325-28.759-20.325-28.759L77.965-65.302c0,0-81.726,27.323-89.531,29.887c-8.545,2.879-11.738,8.57-11.413,9.782
	c0.324,1.21,151.93,431.879,154.366,443.612c2.436,11.732,9.295,10.482,9.295,10.482l210.238,9.48
	c38.664,10.045,58.699-1.457,58.699-1.457s261.49-99.434,277.629-104.349s12.17-17.532,12.17-17.532l-7.076-31.245
	C692.342,283.358,437.611,365.765,428.129,365.594z"/>
<path fill="#6a48af" d="M249.434,276.193c-13.001,2.541-38.159,6.805-43.153-2.59c-3.28-6.079-75.216-328.247-78.165-339.251
	c-2.948-11.005-10.887-9.82-10.887-9.82s-24.418,3.948-36.096,7.902c-11.678,3.955-5.491,16.922-5.491,16.922
	s89.147,318.616,94.724,336.348s24.928,11.602,24.928,11.602s144.697-27.802,162.525-32.579
	c17.826-4.776,17.775,15.285,17.775,15.285s4.275,83.299,6.723,99.037c2.449,15.739,12.209,16.071,12.209,16.071
	s21.275-5.11,39.945-10.703c9.734-2.845,11.734-12.108,9.932-15.754c-1.486-2.903-2.531-5.926-3.387-9.118
	c-6.096-22.307-25.377-92.504-29.213-103.741c-4.426-13.439-24.014-8.19-24.014-8.19S262.434,273.653,249.434,276.193z"/>
<path fill="#6a48af" d="M449.156,176.445c-0.018,8.732-0.656,28.363,1.994,29.893c2.652,1.532,183.799-39.457,194.496-40.908
	s15.283,16.544,15.283,16.544l32.158,104.604c0,0-50.633,16.163-53.838,16.078c-3.209-0.085-4.844-11.912-5.67-14.994
	c-0.824-3.08-10.775-83.796-12.023-95.493c-1.246-11.694-15.324-7.451-19.176-6.419s-179.191,37.281-182.955,36.874
	c-3.766-0.406-44.215-349.88-44.98-357.577c-0.766-7.697,5.965-8.557,5.965-8.557c9.893-4.893,19.904-9.344,30.203-13.165
	c14.832-5.39,18.646,17.648,18.646,17.648S449.02,171.528,449.156,176.445z"/>
</svg>
