<?xml version="1.0" encoding="utf-8"?>
<!-- Generator: Adobe Illustrator 16.0.0, SVG Export Plug-In . SVG Version: 6.00 Build 0)  -->
<!DOCTYPE svg PUBLIC "-//W3C//DTD SVG 1.1//EN" "http://www.w3.org/Graphics/SVG/1.1/DTD/svg11.dtd">
<svg version="1.1" id="phone" xmlns="http://www.w3.org/2000/svg" xmlns:xlink="http://www.w3.org/1999/xlink" x="0px" y="0px"
	 width="603.06px" height="882.249px" viewBox="-150.726 -285.749 603.06 882.249"
	 enable-background="new -150.726 -285.749 603.06 882.249" xml:space="preserve">
<linearGradient id="SVGID_1_" gradientUnits="userSpaceOnUse" x1="763.3496" y1="1228.2861" x2="1190.0696" y2="896.276" gradientTransform="matrix(1.7131 0.4444 -0.4444 1.7131 -1275.0773 -2000.7258)">
	<stop  offset="0" style="stop-color:#7A5BF5"/>
	<stop  offset="1" style="stop-color:#CD94EF"/>
</linearGradient>
<path fill="url(#SVGID_1_)" d="M248.353,564c-3.333,12.847-16.278,20.46-29.126,17.126l0,0l-337.147-87.45
	c-12.676-3.286-20.46-16.277-17.127-29.125L50.429-250.514c3.288-12.679,16.277-20.462,29.126-17.131L416.7-180.192
	c12.679,3.288,20.462,16.277,17.129,29.127L248.353,564z"/>
<linearGradient id="SVGID_2_" gradientUnits="userSpaceOnUse" x1="973.3457" y1="976.2969" x2="1200.2451" y2="976.2969" gradientTransform="matrix(1.7131 0.4444 -0.4444 1.7131 -1275.0773 -2000.7258)">
	<stop  offset="0" style="stop-color:#7A5BF5"/>
	<stop  offset="1" style="stop-color:#805FF5"/>
</linearGradient>
<path fill="none" stroke="url(#SVGID_2_)" stroke-width="3" stroke-miterlimit="10" d="M251.975,562.014
	c-3.333,12.848-16.276,20.46-29.125,17.127l0,0l-337.317-87.492c-12.677-3.29-20.462-16.28-17.129-29.128L53.88-252.545
	c3.333-12.849,16.278-20.46,29.126-17.128l337.317,87.495c12.679,3.289,20.461,16.276,17.128,29.126L251.975,562.014z"/>
<rect x="-8.773" y="-130.945" transform="matrix(-0.968 -0.2511 0.2511 -0.968 257.7036 353.4384)" fill="#FFFFFF" width="320.341" height="582.451"/>
<polygon fill="#FFFFFF" points="-76.38,402.609 70.215,-162.555 278.883,-109.161 8.383,424.048 "/>
<linearGradient id="SVGID_3_" gradientUnits="userSpaceOnUse" x1="127.2461" y1="660.0449" x2="310.2471" y2="660.0449" gradientTransform="matrix(1.7131 0.4444 -0.4444 1.7131 69.954 -1067.6711)">
	<stop  offset="0" style="stop-color:#7A5BF5"/>
	<stop  offset="1" style="stop-color:#805FF5"/>
</linearGradient>
<rect x="-8.773" y="-130.945" transform="matrix(-0.968 -0.2511 0.2511 -0.968 257.7036 353.4384)" fill="none" stroke="url(#SVGID_3_)" stroke-width="2" stroke-miterlimit="10" width="320.341" height="582.451"/>
<linearGradient id="SVGID_4_" gradientUnits="userSpaceOnUse" x1="200.1465" y1="472.3945" x2="234.0459" y2="472.3945" gradientTransform="matrix(1.7131 0.4444 -0.4444 1.7131 69.954 -1067.6711)">
	<stop  offset="0" style="stop-color:#7A5BF5"/>
	<stop  offset="1" style="stop-color:#805FF5"/>
</linearGradient>
<linearGradient id="SVGID_5_" gradientUnits="userSpaceOnUse" x1="199.6465" y1="472.3945" x2="234.5459" y2="472.3945" gradientTransform="matrix(1.7131 0.4444 -0.4444 1.7131 69.954 -1067.6711)">
	<stop  offset="0" style="stop-color:#7A5BF5"/>
	<stop  offset="1" style="stop-color:#805FF5"/>
</linearGradient>
<path fill="url(#SVGID_4_)" stroke="url(#SVGID_5_)" stroke-miterlimit="10" d="M210.686-174.023l45.74,11.865
	c3.427,0.888,5.457,4.341,4.567,7.766l0,0c-0.888,3.428-4.339,5.458-7.766,4.568l-45.74-11.865
	c-3.426-0.888-5.457-4.341-4.569-7.765l0,0C203.808-172.882,207.26-174.912,210.686-174.023z"/>
<linearGradient id="SVGID_6_" gradientUnits="userSpaceOnUse" x1="214.0459" y1="455.8945" x2="220.3764" y2="455.8945" gradientTransform="matrix(1.7131 0.4444 -0.4444 1.7131 69.954 -1067.6711)">
	<stop  offset="0" style="stop-color:#7A5BF5"/>
	<stop  offset="1" style="stop-color:#805FF5"/>
</linearGradient>
<circle fill="url(#SVGID_6_)" cx="239.545" cy="-190.124" r="5.665"/>
<linearGradient id="SVGID_7_" gradientUnits="userSpaceOnUse" x1="1074.9453" y1="1171.3965" x2="1096.0073" y2="1171.3965" gradientTransform="matrix(1.7131 0.4444 -0.4444 1.7131 -1275.0773 -2000.7258)">
	<stop  offset="0" style="stop-color:#7A5BF5"/>
	<stop  offset="1" style="stop-color:#805FF5"/>
</linearGradient>
<linearGradient id="SVGID_8_" gradientUnits="userSpaceOnUse" x1="1074.4453" y1="1171.3965" x2="1096.5073" y2="1171.3965" gradientTransform="matrix(1.7131 0.4444 -0.4444 1.7131 -1275.0773 -2000.7258)">
	<stop  offset="0" style="stop-color:#7A5BF5"/>
	<stop  offset="1" style="stop-color:#805FF5"/>
</linearGradient>
<path fill="url(#SVGID_7_)" stroke="url(#SVGID_8_)" stroke-miterlimit="10" d="M68.587,470.381
	c9.935,2.576,15.898,12.717,13.322,22.654c-2.577,9.934-12.718,15.899-22.654,13.319c-9.936-2.573-15.899-12.717-13.322-22.652
	C48.51,473.766,58.65,467.803,68.587,470.381L68.587,470.381"/>
<linearGradient id="SVGID_9_" gradientUnits="userSpaceOnUse" x1="205.9463" y1="851.8945" x2="229.0073" y2="851.8945" gradientTransform="matrix(1.7131 0.4444 -0.4444 1.7131 69.954 -1067.6711)">
	<stop  offset="0" style="stop-color:#7A5BF5"/>
	<stop  offset="1" style="stop-color:#805FF5"/>
</linearGradient>
<circle fill="#FFFFFF" stroke="url(#SVGID_9_)" stroke-width="2" stroke-miterlimit="10" cx="63.921" cy="488.368" r="18.582"/>
</svg>
